<?xml version="1.0" standalone="no"?>
<!DOCTYPE svg PUBLIC "-//W3C//DTD SVG 20010904//EN"
 "http://www.w3.org/TR/2001/REC-SVG-20010904/DTD/svg10.dtd">
<svg version="1.0" xmlns="http://www.w3.org/2000/svg"
 width="1200.000000pt" height="1200.000000pt" viewBox="0 0 1200.000000 1200.000000"
 preserveAspectRatio="xMidYMid meet">
<metadata>
Created by potrace 1.16, written by Peter Selinger 2001-2019
</metadata>
<g transform="translate(0.000000,1200.000000) scale(0.100000,-0.100000)"
fill="#000000" stroke="none">
<path d="M5276 8129 l-26 -31 0 -629 0 -629 750 0 750 0 0 629 0 629 -26 31
-26 31 -698 0 -698 0 -26 -31z m1402 -41 c7 -7 12 -34 12 -60 l0 -48 -690 0
-690 0 0 48 c0 26 5 53 12 60 17 17 1339 17 1356 0z m12 -678 l0 -510 -690 0
-690 0 0 510 0 510 690 0 690 0 0 -510z"/>
<path d="M6092 7783 c-34 -64 -273 -666 -270 -681 2 -11 12 -17 28 -17 23 0
34 22 163 335 75 184 136 344 135 355 -4 26 -43 32 -56 8z"/>
<path d="M5605 7556 c-88 -51 -110 -68 -110 -86 0 -18 22 -35 110 -86 117 -68
150 -76 150 -35 0 20 -13 32 -60 59 -121 70 -118 58 -29 108 89 51 109 70 93
91 -19 22 -40 15 -154 -51z"/>
<path d="M6244 7605 c-11 -27 2 -39 85 -85 44 -25 81 -47 81 -50 0 -3 -38 -26
-83 -51 -67 -38 -82 -51 -82 -70 0 -41 34 -33 150 35 90 52 110 68 110 87 0
19 -19 34 -110 86 -114 65 -142 74 -151 48z"/>
<path d="M2400 6975 l0 -75 1350 0 1350 0 0 75 0 75 -1350 0 -1350 0 0 -75z"/>
<path d="M6900 6975 l0 -75 1350 0 1350 0 0 75 0 75 -1350 0 -1350 0 0 -75z"/>
<path d="M1200 5400 l0 -1200 4800 0 4800 0 0 1200 0 1200 -4800 0 -4800 0 0
-1200z m1396 253 c-2 -10 -8 -69 -11 -130 l-7 -113 -38 0 -38 0 -6 93 c-4 50
-9 109 -12 130 l-6 37 62 0 c54 0 61 -2 56 -17z m199 -105 c-4 -68 -9 -126
-12 -130 -2 -5 -19 -8 -37 -8 l-34 0 -6 63 c-3 34 -8 92 -12 130 l-6 67 57 0
57 0 -7 -122z m705 82 l0 -40 -100 0 -100 0 0 -320 0 -320 -45 0 -45 0 0 320
0 320 -105 0 -105 0 0 40 0 40 250 0 250 0 0 -40z m1009 -305 c81 -187 150
-348 154 -357 5 -15 0 -18 -37 -18 l-43 0 -146 343 c-80 188 -149 350 -153
360 -6 16 -2 18 36 15 l43 -3 146 -340z m610 0 c81 -187 150 -348 154 -357 5
-15 0 -18 -37 -18 l-43 0 -146 343 c-80 188 -149 350 -153 360 -6 16 -2 18 36
15 l43 -3 146 -340z m674 331 c32 -8 70 -24 84 -37 93 -86 57 -245 -61 -275
-28 -7 -28 -7 19 -25 82 -31 116 -79 114 -161 -1 -59 -19 -103 -58 -144 -50
-51 -108 -64 -283 -64 l-148 0 0 360 0 360 138 0 c80 0 161 -6 195 -14z m727
-26 l0 -40 -160 0 -160 0 0 -110 0 -110 150 0 150 0 0 -40 0 -40 -150 0 -150
0 0 -130 0 -130 160 0 160 0 0 -40 0 -40 -205 0 -205 0 0 360 0 360 205 0 205
0 0 -40z m342 -127 c44 -93 108 -226 142 -298 l63 -130 -5 298 -5 297 47 0 46
0 0 -360 0 -360 -53 0 -54 0 -137 288 c-76 158 -141 290 -144 294 -4 4 -6
-126 -4 -287 l4 -295 -41 0 -41 0 0 360 0 360 51 0 50 0 81 -167z m750 134
c98 -48 153 -133 166 -257 15 -142 -15 -260 -86 -333 -69 -72 -149 -97 -307
-97 l-95 0 0 361 0 361 133 -4 c118 -4 138 -7 189 -31z m738 -7 l0 -40 -160 0
-160 0 0 -110 0 -110 150 0 150 0 0 -40 0 -40 -150 0 -150 0 0 -130 0 -130
160 0 160 0 0 -40 0 -40 -205 0 -205 0 0 360 0 360 205 0 205 0 0 -40z m640 0
l0 -40 -100 0 -100 0 0 -320 0 -320 -45 0 -45 0 0 320 0 320 -105 0 -105 0 0
40 0 40 250 0 250 0 0 -40z m316 23 c-2 -10 -8 -69 -11 -130 l-7 -113 -38 0
-38 0 -6 93 c-4 50 -9 109 -12 130 l-6 37 62 0 c54 0 61 -2 56 -17z m199 -105
c-4 -68 -9 -126 -12 -130 -2 -5 -19 -8 -37 -8 l-34 0 -6 63 c-3 34 -8 92 -12
130 l-6 67 57 0 57 0 -7 -122z"/>
<path d="M5550 5481 l0 -111 95 0 c120 0 160 15 182 67 20 49 8 98 -30 127
-24 18 -46 22 -138 24 l-109 4 0 -111z"/>
<path d="M5550 5160 l0 -130 100 0 c156 0 200 30 200 137 0 95 -46 123 -200
123 l-100 0 0 -130z"/>
<path d="M7380 5309 l0 -282 73 5 c74 5 136 29 169 65 44 48 63 114 63 219 0
92 -2 105 -30 159 -25 50 -39 63 -84 87 -43 23 -66 28 -122 28 l-69 0 0 -281z"/>
<path d="M2400 3750 l0 -80 3600 0 3600 0 0 80 0 80 -3600 0 -3600 0 0 -80z"/>
</g>
</svg>
